<svg xmlns="http://www.w3.org/2000/svg" xmlns:xlink="http://www.w3.org/1999/xlink" version="1.1" width="17.762451171875" height="20.27734375" viewBox="0 0 17.762451171875 20.27734375"><g transform="matrix(1,0,0,-1,0,40.5546875)"><g><path d="M5.3525391,39.841699750000004L5.0750003,39.287242750000004L5.3525391,39.841699750000004L5.0750003,39.287242750000004L1.2687501,39.287242750000004Q0.71367192,39.287242750000004,0.35683596,38.93080675Q0,38.574372749999995,0,38.01991875Q0,37.46546175,0.35683596,37.10902575Q0.71367192,36.75258975,1.2687501,36.75258975L16.49375,36.75258975Q17.04883,36.75258975,17.405666,37.10902575Q17.762501,37.46546175,17.762501,38.01991875Q17.762501,38.574372749999995,17.405666,38.93080675Q17.04883,39.287242750000004,16.49375,39.287242750000004L12.687501,39.287242750000004L12.409962,39.841699750000004Q12.053126,40.51496675,11.260158,40.554570749999996L6.5023441,40.554570749999996Q5.7093754,40.51496675,5.3525391,39.841699750000004ZM16.49375,35.48526375L1.2687501,35.48526375L16.49375,35.48526375L1.2687501,35.48526375L2.1013675,22.05952195Q2.1806643,21.30704665,2.696094,20.7921952Q3.2511721,20.27734375,4.0044923,20.27734375L13.758008,20.27734375Q14.51133,20.27734375,15.066407,20.7921952Q15.581837,21.30704665,15.661134,22.05952195L16.49375,35.48526375Z" fill="#EF4444" fill-opacity="1" style="mix-blend-mode:passthrough"/></g></g></svg>