<svg xmlns="http://www.w3.org/2000/svg" xmlns:xlink="http://www.w3.org/1999/xlink" ><defs><clipPath id="master_svg0_55_6089"><rect x="11.41845703125" y="10.1385498046875" width="17.762500762939453" height="20.2772274017334" rx="0"/></clipPath></defs><g><rect x="0" y="0" width="40.60000228881836" height="40.5544548034668" rx="5.073845863342285" fill="#000000" fill-opacity="0" style="mix-blend-mode:passthrough"/><g clip-path="url(#master_svg0_55_6089)"><g transform="matrix(1,0,0,-1,0,61.702880859375)"><g><path d="M16.77099613125,50.415796429687504L16.49345733125,49.861339429687504L16.77099613125,50.415796429687504L16.49345733125,49.861339429687504L12.68720713125,49.861339429687504Q12.13212895125,49.861339429687504,11.77529299125,49.5049034296875Q11.41845703125,49.148469429687495,11.41845703125,48.5940154296875Q11.41845703125,48.0395584296875,11.77529299125,47.6831224296875Q12.13212895125,47.3266864296875,12.68720713125,47.3266864296875L27.91220703125,47.3266864296875Q28.46728703125,47.3266864296875,28.82412303125,47.6831224296875Q29.18095803125,48.0395584296875,29.18095803125,48.5940154296875Q29.18095803125,49.148469429687495,28.82412303125,49.5049034296875Q28.46728703125,49.861339429687504,27.91220703125,49.861339429687504L24.105958031249997,49.861339429687504L23.82841903125,50.415796429687504Q23.47158303125,51.0890634296875,22.67861503125,51.128667429687496L17.920801131250002,51.128667429687496Q17.12783243125,51.0890634296875,16.77099613125,50.415796429687504ZM27.91220703125,46.0593604296875L12.68720713125,46.0593604296875L27.91220703125,46.0593604296875L12.68720713125,46.0593604296875L13.51982453125,32.6336186296875Q13.59912133125,31.8811433296875,14.11455103125,31.3662918796875Q14.66962913125,30.8514404296875,15.422949331249999,30.8514404296875L25.17646503125,30.8514404296875Q25.92978703125,30.8514404296875,26.484864031249998,31.3662918796875Q27.00029403125,31.8811433296875,27.07959103125,32.6336186296875L27.91220703125,46.0593604296875Z" fill="#EF4444" fill-opacity="1" style="mix-blend-mode:passthrough"/></g></g></g></g></svg>