<svg xmlns="http://www.w3.org/2000/svg" xmlns:xlink="http://www.w3.org/1999/xlink"><defs><clipPath id="master_svg0_55_73217"><rect x="0" y="0" width="14" height="14" rx="0"/></clipPath></defs><g clip-path="url(#master_svg0_55_73217)"><g transform="matrix(1,0,0,-1,0,32.6875)"><g><path d="M9,31.34375Q9,31.78125,8.71875,32.0625Q8.4375,32.34375,8,32.34375Q7.5625,32.34375,7.28125,32.0625Q7,31.78125,7,31.34375L7,23.75L4.71875,26.0625Q4.40625,26.34375,4,26.34375Q3.59375,26.34375,3.28125,26.0625Q3,25.75,3,25.34375Q3,24.9375,3.28125,24.625L7.28125,20.625Q7.59375,20.34375,8,20.34375Q8.40625,20.34375,8.71875,20.625L12.71875,24.625Q13,24.9375,13,25.34375Q13,25.75,12.71875,26.0625Q12.40625,26.34375,12,26.34375Q11.59375,26.34375,11.28125,26.0625L9,23.75L9,31.34375ZM2,21.34375Q1.15625,21.3125,0.59375,20.75Q0.03125,20.1875,0,19.34375L0,18.34375Q0.03125,17.5,0.59375,16.9375Q1.15625,16.375,2,16.34375L14,16.34375Q14.84375,16.375,15.40625,16.9375Q15.96875,17.5,16,18.34375L16,19.34375Q15.96875,20.1875,15.40625,20.75Q14.84375,21.3125,14,21.34375L10.84375,21.34375L9.40625,19.9375Q8.78125,19.34375,8,19.34375Q7.1875,19.34375,6.59375,19.9375L5.1875,21.34375L2,21.34375ZM13.5,19.59375Q14.1875,19.53125,14.25,18.84375Q14.1875,18.15625,13.5,18.09375Q12.8125,18.15625,12.75,18.84375Q12.8125,19.53125,13.5,19.59375Z" fill="#FFFFFF" fill-opacity="1" style="mix-blend-mode:passthrough"/></g></g></g></svg>