<svg xmlns="http://www.w3.org/2000/svg" xmlns:xlink="http://www.w3.org/1999/xlink" version="1.1" width="20.300048828125" height="20.0791015625" viewBox="0 0 20.300048828125 20.0791015625"><g transform="matrix(1,0,0,-1,0,40.158203125)"><g><path d="M18.898621,39.4850425625Q18.17791,40.1583075625,17.297045,40.1583075625Q16.416174,40.1583075625,15.695465,39.4850425625L14.494283,38.2969225625L18.418148,34.4157365625L19.619331,35.6038535625Q20.300001,36.3167245625,20.300001,37.188013562500004Q20.300001,38.0592995625,19.619331,38.7721705625L18.898621,39.4850425625ZM6.886786,30.7721705625Q6.5264306,30.4157345625,6.3662729,29.9008836625L5.1650891,26.4157347625Q5.0049314,25.8612794625,5.4053259,25.425635862500002Q5.8457603,25.0295963625,6.406312,25.1880121625L9.9698229,26.3761310625Q10.450297,26.5345468625,10.810652,26.8909826625L17.537279,33.5444475625L13.613413,37.4256345625L6.886786,30.7721705625ZM3.8437872,37.8216765625Q2.2021699,37.782070562499996,1.1211047,36.7127645625Q0.04003945,35.643457562500004,0,34.019695562500004L0,23.8810815625Q0.04003945,22.2573191625,1.1211047,21.1880124625Q2.2021699,20.1187055225,3.8437872,20.0791015625L14.093887,20.0791015625Q15.735504,20.1187055225,16.81657,21.1880124625Q17.897635,22.2573191625,17.937675,23.8810815625L17.937675,27.6830615625Q17.937675,28.2375173625,17.577322,28.5939531625Q17.216963,28.9503888625,16.656412,28.9503888625Q16.09586,28.9503888625,15.735504,28.5939531625Q15.375149,28.2375173625,15.375149,27.6830615625L15.375149,23.8810815625Q15.375149,23.3266262625,15.014795,22.9701905625Q14.654438,22.6137549625,14.093887,22.6137549625L3.8437872,22.6137549625Q3.2832348,22.6137549625,2.9228802,22.9701905625Q2.5625248,23.3266262625,2.5625248,23.8810815625L2.5625248,34.019695562500004Q2.5625248,34.5741505625,2.9228802,34.9305875625Q3.2832348,35.2870215625,3.8437872,35.2870215625L7.6875744,35.2870215625Q8.248126,35.2870215625,8.6084814,35.643457562500004Q8.9688377,35.9998935625,8.9688377,36.5543475625Q8.9688377,37.1088045625,8.6084814,37.4652405625Q8.248126,37.8216765625,7.6875744,37.8216765625L3.8437872,37.8216765625Z" fill="#4F8DF5" fill-opacity="1" style="mix-blend-mode:passthrough"/></g></g></svg>