<svg xmlns="http://www.w3.org/2000/svg" xmlns:xlink="http://www.w3.org/1999/xlink" version="1.1"><defs><clipPath id="master_svg0_55_70410"><rect x="10.14990234375" y="10.138671875" width="20.30000114440918" height="20.2772274017334" rx="0"/></clipPath></defs><g><rect x="0" y="0" width="40.60000228881836" height="40.5544548034668" rx="5.073845863342285" fill="#000000" fill-opacity="0" style="mix-blend-mode:passthrough"/><g clip-path="url(#master_svg0_55_70410)"><g transform="matrix(1,0,0,-1,0,61.70263671875)"><g><path d="M28.94793740625,50.257259359375Q28.22722640625,50.930524359375,27.34636140625,50.930524359375Q26.46549040625,50.930524359375,25.74478140625,50.257259359375L24.54359940625,49.069139359375L28.46746440625,45.187953359375L29.66864740625,46.376070359375Q30.34931740625,47.088941359375,30.34931740625,47.960230359375004Q30.34931740625,48.831516359375,29.66864740625,49.544387359375L28.94793740625,50.257259359375ZM16.93610240625,41.544387359375Q16.57574700625,41.187951359375,16.41558930625,40.673100459375L15.21440550625,37.187951559375Q15.05424780625,36.633496259375,15.454642306250001,36.197852659375Q15.89507670625,35.801813159375,16.45562840625,35.960228959375L20.01913930625,37.148347859375Q20.49961340625,37.306763659375,20.859968406249997,37.663199459375L27.58659540625,44.316664359375L23.66272940625,48.197851359375L16.93610240625,41.544387359375ZM13.89310360625,48.593893359375Q12.25148630625,48.554287359374996,11.17042110625,47.484981359375Q10.08935585625,46.415674359375004,10.04931640625,44.791912359375004L10.04931640625,34.653298359375Q10.08935585625,33.029535959374996,11.17042110625,31.960229259375Q12.25148630625,30.890922319375,13.89310360625,30.851318359375L24.143203406250002,30.851318359375Q25.78482040625,30.890922319375,26.86588640625,31.960229259375Q27.94695140625,33.029535959374996,27.98699140625,34.653298359375L27.98699140625,38.455278359375Q27.98699140625,39.009734159375,27.62663840625,39.366169959375Q27.26627940625,39.722605659375,26.70572840625,39.722605659375Q26.14517640625,39.722605659375,25.78482040625,39.366169959375Q25.42446540625,39.009734159375,25.42446540625,38.455278359375L25.42446540625,34.653298359375Q25.42446540625,34.098843059375,25.06411140625,33.742407359375Q24.70375440625,33.385971759374996,24.143203406250002,33.385971759374996L13.89310360625,33.385971759374996Q13.332551206249999,33.385971759374996,12.97219660625,33.742407359375Q12.61184120625,34.098843059375,12.61184120625,34.653298359375L12.61184120625,44.791912359375004Q12.61184120625,45.346367359375,12.97219660625,45.702804359375Q13.332551206249999,46.059238359375,13.89310360625,46.059238359375L17.73689080625,46.059238359375Q18.29744240625,46.059238359375,18.657797806250002,46.415674359375004Q19.01815410625,46.772110359375,19.01815410625,47.326564359375Q19.01815410625,47.881021359375,18.657797806250002,48.237457359375Q18.29744240625,48.593893359375,17.73689080625,48.593893359375L13.89310360625,48.593893359375Z" fill="#4F8DF5" fill-opacity="1" style="mix-blend-mode:passthrough"/></g></g></g></g></svg>