<svg width="16" height="16" viewBox="0 0 20 16" xmlns="http://www.w3.org/2000/svg">
<g clip-path="url(#clip0_1132_424)">
<path d="M2.86525 2.75195C3.60025 2.75195 4.19925 3.35095 4.19925 4.08595C4.19925 4.82095 3.60025 5.41995 2.86525 5.41995C2.51161 5.41942 2.17261 5.27871 1.92255 5.02865C1.67249 4.77859 1.53178 4.43959 1.53125 4.08595C1.53125 3.35095 2.12925 2.75195 2.86525 2.75195ZM2.86525 1.75195C2.24637 1.75182 1.65278 1.99754 1.21507 2.43507C0.77736 2.87259 0.531383 3.46607 0.53125 4.08495C0.531117 4.70384 0.77684 5.29742 1.21436 5.73513C1.65189 6.17284 2.24537 6.41882 2.86425 6.41895C3.48313 6.41909 4.07672 6.17336 4.51443 5.73584C4.95214 5.29832 5.19812 4.70484 5.19825 4.08595C5.19838 3.46707 4.95266 2.87348 4.51514 2.43577C4.07762 1.99806 3.48413 1.75209 2.86525 1.75195ZM13.1362 2.75195C13.8722 2.75195 14.4712 3.35095 14.4712 4.08595C14.4712 4.82095 13.8722 5.41995 13.1362 5.41995C12.7826 5.41942 12.4436 5.27871 12.1936 5.02865C11.9435 4.77859 11.8028 4.43959 11.8022 4.08595C11.8022 3.35095 12.4002 2.75195 13.1362 2.75195ZM13.1362 1.75195C12.8297 1.75195 12.5262 1.81232 12.2431 1.92962C11.9599 2.04691 11.7026 2.21883 11.4859 2.43557C11.2691 2.6523 11.0972 2.9096 10.9799 3.19277C10.8626 3.47594 10.8022 3.77945 10.8022 4.08595C10.8022 4.39246 10.8626 4.69596 10.9799 4.97914C11.0972 5.26231 11.2691 5.51961 11.4859 5.73634C11.7026 5.95307 11.9599 6.12499 12.2431 6.24229C12.5262 6.35958 12.8297 6.41995 13.1362 6.41995C13.7553 6.41995 14.3489 6.17405 14.7866 5.73634C15.2243 5.29863 15.4703 4.70497 15.4703 4.08595C15.4703 3.46694 15.2243 2.87328 14.7866 2.43557C14.3489 1.99786 13.7553 1.75195 13.1362 1.75195ZM8.00025 11.754C8.34324 11.7702 8.66679 11.9179 8.90377 12.1664C9.14075 12.4149 9.27296 12.7451 9.27296 13.0885C9.27296 13.4318 9.14075 13.762 8.90377 14.0105C8.66679 14.259 8.34324 14.4067 8.00025 14.423C7.64661 14.4224 7.30761 14.2817 7.05755 14.0317C6.80749 13.7816 6.66678 13.4426 6.66625 13.089C6.66678 12.7352 6.80746 12.3961 7.05749 12.1459C7.30752 11.8957 7.64652 11.7547 8.00025 11.754ZM8.00025 10.754C7.3811 10.754 6.78731 10.9999 6.34951 11.4377C5.91171 11.8755 5.66575 12.4693 5.66575 13.0885C5.66575 13.7076 5.91171 14.3014 6.34951 14.7392C6.78731 15.177 7.3811 15.423 8.00025 15.423C8.30671 15.423 8.61016 15.3626 8.89328 15.2453C9.1764 15.128 9.43363 14.956 9.65028 14.7393C9.86694 14.5225 10.0388 14.2652 10.1559 13.9821C10.2731 13.6989 10.3334 13.3954 10.3333 13.089C10.3336 12.7824 10.2736 12.4787 10.1565 12.1954C10.0394 11.912 9.86762 11.6546 9.65093 11.4377C9.43424 11.2208 9.17691 11.0488 8.89367 10.9315C8.61043 10.8141 8.30683 10.7538 8.00025 10.754Z" fill-opacity="0.85"/>
<path d="M4.12871 12.9442C4.01614 12.9443 3.90687 12.9062 3.81871 12.8362C3.0202 12.2084 2.37507 11.4071 1.93222 10.493C1.48936 9.57886 1.26041 8.57593 1.26271 7.56019C1.26271 6.89019 1.36171 6.22819 1.55571 5.59419C1.5947 5.46742 1.68245 5.36132 1.79966 5.29925C1.91687 5.23717 2.05394 5.2242 2.18071 5.26319C2.30749 5.30218 2.41358 5.38993 2.47565 5.50714C2.53773 5.62435 2.5507 5.76142 2.51171 5.88819C2.34607 6.43005 2.26215 6.99358 2.26271 7.56019C2.26271 9.31919 3.05571 10.9572 4.43971 12.0532C4.52075 12.1178 4.57972 12.206 4.60846 12.3055C4.6372 12.4051 4.63429 12.5111 4.60014 12.609C4.56599 12.7068 4.50228 12.7916 4.41783 12.8517C4.33337 12.9117 4.23234 12.9441 4.12871 12.9442ZM10.0847 13.9172C9.9675 13.9161 9.85437 13.874 9.765 13.7982C9.67563 13.7224 9.61567 13.6176 9.59558 13.5021C9.57548 13.3866 9.5965 13.2678 9.655 13.1662C9.71349 13.0646 9.80575 12.9868 9.91571 12.9462C11.0244 12.5467 11.9832 11.8154 12.6615 10.8517C13.3398 9.88796 13.7048 8.73868 13.7067 7.56019C13.7067 7.42758 13.7594 7.3004 13.8532 7.20664C13.9469 7.11287 14.0741 7.06019 14.2067 7.06019C14.3393 7.06019 14.4665 7.11287 14.5603 7.20664C14.654 7.3004 14.7067 7.42758 14.7067 7.56019C14.7045 8.94467 14.2759 10.2949 13.4791 11.4271C12.6824 12.5594 11.5562 13.4187 10.2537 13.8882C10.1993 13.907 10.1423 13.9168 10.0847 13.9172ZM11.9167 3.16519C11.8014 3.16538 11.6897 3.12543 11.6007 3.05219C10.0657 1.79919 7.87971 1.43719 6.03571 2.10619C5.9127 2.14429 5.77975 2.13357 5.66444 2.07624C5.54913 2.01891 5.46032 1.91938 5.41644 1.79831C5.37257 1.67724 5.377 1.54393 5.42882 1.42604C5.48063 1.30815 5.57585 1.21473 5.69471 1.16519C7.86271 0.378189 10.4307 0.804189 12.2337 2.27719C12.3134 2.34269 12.3709 2.43119 12.3984 2.5306C12.4259 2.63001 12.4221 2.73549 12.3874 2.83263C12.3527 2.92977 12.2889 3.01384 12.2047 3.07336C12.1204 3.13288 12.0199 3.16495 11.9167 3.16519Z"  fill-opacity="0.85"/>
</g>
<defs>
<clipPath id="clip0_1132_424">
<rect width="16" height="16" fill="white"/>
</clipPath>
</defs>
</svg>
