<svg xmlns="http://www.w3.org/2000/svg" xmlns:xlink="http://www.w3.org/1999/xlink"><defs><clipPath id="master_svg0_55_73226"><rect x="0" y="0" width="16" height="16" rx="0"/></clipPath></defs><g clip-path="url(#master_svg0_55_73226)"><g transform="matrix(1,0,0,-1,0,32.6875)"><g><path d="M13,25.84375Q12.96875,23.65625,11.75,22L15.71875,18.0625Q16,17.75,16,17.34375Q16,16.9375,15.71875,16.625Q15.40625,16.34375,15,16.34375Q14.59375,16.34375,14.28125,16.625L10.34375,20.59375Q8.6875,19.375,6.5,19.34375Q3.75,19.40625,1.90625,21.25Q0.0625,23.09375,0,25.84375Q0.0625,28.59375,1.90625,30.4375Q3.75,32.28125,6.5,32.34375Q9.25,32.28125,11.09375,30.4375Q12.9375,28.59375,13,25.84375ZM6.5,21.34375Q7.71875,21.34375,8.75,21.9375Q9.78125,22.53125,10.40625,23.59375Q11,24.65625,11,25.84375Q11,27.03125,10.40625,28.09375Q9.78125,29.15625,8.75,29.75Q7.71875,30.34375,6.5,30.34375Q5.28125,30.34375,4.25,29.75Q3.21875,29.15625,2.59375,28.09375Q2,27.03125,2,25.84375Q2,24.65625,2.59375,23.59375Q3.21875,22.53125,4.25,21.9375Q5.28125,21.34375,6.5,21.34375Z" fill="#FFFFFF" fill-opacity="1" style="mix-blend-mode:passthrough"/></g></g></g></svg>