<svg xmlns="http://www.w3.org/2000/svg" width="16" height="16" viewBox="0 0 18 16" fill="black">
  <path fill-rule="evenodd" clip-rule="evenodd" d="M6.66243 1.34706C6.55448 1.13547 6.31257 1.02903 6.08365 1.0924C4.9607 1.40325 3.94908 1.98021 3.12073 2.75043C2.95897 2.90085 2.91507 3.13958 3.01275 3.33769C3.11094 3.53687 3.16634 3.76121 3.16634 3.99993C3.16634 4.82836 2.49477 5.49993 1.66634 5.49993L1.64541 5.49978C1.42437 5.49663 1.2275 5.63899 1.16125 5.84989C0.947857 6.52925 0.833008 7.25165 0.833008 7.99993C0.833008 8.49384 0.883041 8.97654 0.978479 9.44316C1.02979 9.69405 1.26238 9.86561 1.51723 9.84057C1.56627 9.83575 1.616 9.83326 1.66634 9.83326C2.49477 9.83326 3.16634 10.5048 3.16634 11.3333C3.16634 11.702 3.03393 12.0385 2.81349 12.2998C2.64833 12.4955 2.65778 12.7844 2.83536 12.9689C3.6812 13.8479 4.74997 14.5118 5.9516 14.8695C6.21252 14.9472 6.48764 14.8019 6.57053 14.5426C6.76404 13.9373 7.33144 13.4999 7.99967 13.4999C8.66791 13.4999 9.23531 13.9373 9.42882 14.5426C9.51171 14.8019 9.78683 14.9472 10.0477 14.8695C11.2494 14.5118 12.3181 13.8479 13.164 12.9689C13.3416 12.7844 13.351 12.4955 13.1859 12.2998C12.9654 12.0385 12.833 11.702 12.833 11.3333C12.833 10.5048 13.5046 9.83326 14.333 9.83326C14.3834 9.83326 14.4331 9.83575 14.4821 9.84057C14.737 9.86561 14.9696 9.69405 15.0209 9.44316C15.1163 8.97654 15.1663 8.49385 15.1663 7.99993C15.1663 7.25165 15.0515 6.52925 14.8381 5.8499C14.7719 5.63899 14.575 5.49662 14.3539 5.49978L14.333 5.49993C13.5046 5.49993 12.833 4.82836 12.833 3.99993C12.833 3.76121 12.8884 3.53687 12.9866 3.33769C13.0843 3.13958 13.0404 2.90085 12.8786 2.75043C12.0503 1.98021 11.0387 1.40325 9.9157 1.0924C9.68678 1.02903 9.44487 1.13547 9.33692 1.34706C9.08822 1.83455 8.58228 2.16661 7.99967 2.16661C7.41707 2.16661 6.91113 1.83455 6.66243 1.34706ZM4.16634 3.99993C4.16634 3.74275 4.12735 3.49409 4.05485 3.25988C4.62516 2.78467 5.28222 2.4107 5.99847 2.1651C6.45406 2.77258 7.18056 3.16661 7.99967 3.16661C8.81879 3.16661 9.54528 2.77258 10.0009 2.1651C10.7171 2.4107 11.3742 2.78467 11.9445 3.25988C11.872 3.49409 11.833 3.74275 11.833 3.99993C11.833 5.25956 12.7646 6.30161 13.9764 6.47469C14.1003 6.96205 14.1663 7.47298 14.1663 7.99993C14.1663 8.28619 14.1469 8.56766 14.1092 8.84314C12.8334 8.95632 11.833 10.028 11.833 11.3333C11.833 11.7779 11.9494 12.196 12.1532 12.5581C11.582 13.0789 10.913 13.4935 10.1773 13.7713C9.7483 13.0126 8.93432 12.4999 7.99967 12.4999C7.06503 12.4999 6.25105 13.0126 5.8221 13.7713C5.08636 13.4935 4.41731 13.0789 3.84615 12.5581C4.04994 12.196 4.16634 11.7779 4.16634 11.3333C4.16634 10.028 3.16599 8.95632 1.89012 8.84314C1.85248 8.56766 1.83301 8.2862 1.83301 7.99993C1.83301 7.47297 1.89899 6.96205 2.02296 6.47469C3.23475 6.30162 4.16634 5.25956 4.16634 3.99993ZM8.00033 5.16699C6.43552 5.16699 5.16699 6.43552 5.16699 8.00033C5.16699 9.56513 6.43552 10.8337 8.00033 10.8337C9.56513 10.8337 10.8337 9.56513 10.8337 8.00033C10.8337 6.43552 9.56513 5.16699 8.00033 5.16699ZM6.16699 8.00033C6.16699 6.9878 6.9878 6.16699 8.00033 6.16699C9.01285 6.16699 9.83366 6.9878 9.83366 8.00033C9.83366 9.01285 9.01285 9.83366 8.00033 9.83366C6.9878 9.83366 6.16699 9.01285 6.16699 8.00033Z" fill="black"/>
</svg>